<svg width="800" height="600" xmlns="http://www.w3.org/2000/svg">
 <g>
  <title>Layer 1</title>
  <g stroke="null" id="svg_59">
   <g stroke="null" id="svg_35">
    <g stroke="null" id="svg_11">
     <ellipse stroke="#5656ff" transform="matrix(2.11902 -0.717714 0.771259 1.9719 -552.065 45.3967)" fill="#ff0000" stroke-width="30" cx="311.9083" cy="243.29758" id="svg_8" rx="0.52632" ry="79.73684"/>
     <ellipse stroke="#5656ff" transform="matrix(2.11902 0.717714 -0.771259 1.9719 -81.1373 -501.152)" fill="#ff0000" stroke-width="30" cx="339.36738" cy="283.14052" id="svg_10" rx="0.52632" ry="79.73684"/>
     <ellipse stroke="#5656ff" transform="matrix(0 2.09846 -2.25501 0 1042.8 -322.903)" ry="16.24989" rx="0.35714" id="svg_3" cy="353.25762" cx="291.46539" stroke-width="30" fill="#ff0000"/>
     <ellipse stroke="#5656ff" transform="matrix(0 2.09846 -2.25501 0 943.738 -373.116)" ry="16.24989" rx="0.35714" id="svg_4" cy="319.32928" cx="281.46545" stroke-width="30" fill="#ff0000"/>
     <ellipse stroke="#5656ff" transform="matrix(0 2.09846 -2.25501 0 839.041 -422.579)" ry="16.24989" rx="0.35714" id="svg_5" cy="284.32953" cx="270.03696" stroke-width="30" fill="#ff0000"/>
    </g>
    <ellipse stroke="#ffffff" transform="matrix(2.11902 0.717714 -0.771259 1.9719 -81.2335 -501.133)" ry="80.00733" rx="1" id="svg_18" cy="283.02398" cx="339.32138" stroke-width="20" fill="#ffffff"/>
    <ellipse stroke="#ffffff" transform="matrix(2.11902 -0.717714 0.771259 1.9719 -551.692 45.0715)" ry="78.66492" rx="1" id="svg_20" cy="242.7508" cx="311.55156" stroke-width="20" fill="#ffffff"/>
    <ellipse stroke="#ffffff" transform="matrix(0 2.09846 -2.25501 0 836.554 -420.698)" ry="14.65065" rx="1" id="svg_21" cy="284.22625" cx="269.03727" stroke-width="20" fill="#ffffff"/>
    <ellipse stroke="#ffffff" transform="matrix(0 2.09846 -2.25501 0 938.029 -369.736)" ry="14.65065" rx="1" id="svg_22" cy="318.86886" cx="279.39434" stroke-width="20" fill="#ffffff"/>
    <ellipse stroke="#ffffff" transform="matrix(0 2.09846 -2.25501 0 1037.89 -317.275)" ry="14.65065" rx="1" id="svg_23" cy="353.51148" cx="289.03713" stroke-width="20" fill="#ffffff"/>
    <g stroke="null" id="svg_29">
     <ellipse stroke="#5656ff" transform="matrix(2.11902 -0.717714 0.771259 1.9719 -552.066 45.3967)" fill="#ff0000" stroke-width="30" cx="311.9083" cy="243.29758" id="svg_24" rx="0.52632" ry="79.73684"/>
     <ellipse stroke="#5656ff" transform="matrix(2.11902 0.717714 -0.771259 1.9719 -81.137 -501.152)" fill="#ff0000" stroke-width="30" cx="339.36738" cy="283.14052" id="svg_25" rx="0.52632" ry="79.73684"/>
     <ellipse stroke="#5656ff" transform="matrix(0 2.09846 -2.25501 0 1042.8 -322.903)" ry="16.24989" rx="0.35714" id="svg_26" cy="353.25762" cx="291.46539" stroke-width="30" fill="#ff0000"/>
     <ellipse stroke="#5656ff" transform="matrix(0 2.09846 -2.25501 0 943.738 -373.115)" ry="16.24989" rx="0.35714" id="svg_27" cy="319.32928" cx="281.46545" stroke-width="30" fill="#ff0000"/>
     <ellipse stroke="#5656ff" transform="matrix(0 2.09846 -2.25501 0 839.043 -422.58)" ry="16.24989" rx="0.35714" id="svg_28" cy="284.32953" cx="270.03696" stroke-width="30" fill="#ff0000"/>
    </g>
    <ellipse stroke="#ffffff" transform="matrix(2.11902 0.717714 -0.771259 1.9719 -81.2335 -501.133)" ry="80.00733" rx="1" id="svg_30" cy="283.02398" cx="339.32138" stroke-width="20" fill="#ffffff"/>
    <ellipse stroke="#ffffff" transform="matrix(2.11902 -0.717714 0.771259 1.9719 -551.692 45.0713)" ry="78.66492" rx="1" id="svg_31" cy="242.7508" cx="311.55156" stroke-width="20" fill="#ffffff"/>
    <ellipse stroke="#ffffff" transform="matrix(0 2.09846 -2.25501 0 836.555 -420.698)" ry="14.65065" rx="1" id="svg_32" cy="284.22625" cx="269.03727" stroke-width="20" fill="#ffffff"/>
    <ellipse stroke="#ffffff" transform="matrix(0 2.09846 -2.25501 0 938.029 -369.737)" ry="14.65065" rx="1" id="svg_33" cy="318.86886" cx="279.39434" stroke-width="20" fill="#ffffff"/>
    <ellipse stroke="#ffffff" transform="matrix(0 2.09846 -2.25501 0 1037.89 -317.275)" ry="14.65065" rx="1" id="svg_34" cy="353.51148" cx="289.03713" stroke-width="20" fill="#ffffff"/>
   </g>
   <g stroke="null" id="svg_58">
    <g stroke="null" id="svg_41">
     <ellipse stroke="#5656ff" transform="matrix(2.11902 -0.717714 0.771259 1.9719 -542.416 94.8222)" fill="#ff0000" stroke-width="30" cx="380.8364" cy="242.94044" id="svg_36" rx="0.52632" ry="79.73684"/>
     <ellipse stroke="#5656ff" transform="matrix(2.11902 0.717714 -0.771259 1.9719 -72.0386 -550.667)" fill="#ff0000" stroke-width="30" cx="408.29547" cy="282.78338" id="svg_37" rx="0.52632" ry="79.73684"/>
     <ellipse stroke="#5656ff" transform="matrix(0 2.09846 -2.25501 0 1197.42 -468.295)" ry="16.24989" rx="0.35714" id="svg_38" cy="352.90048" cx="360.39348" stroke-width="30" fill="#ff0000"/>
     <ellipse stroke="#5656ff" transform="matrix(0 2.09846 -2.25501 0 1098.37 -518.507)" ry="16.24989" rx="0.35714" id="svg_39" cy="318.97214" cx="350.39355" stroke-width="30" fill="#ff0000"/>
     <ellipse stroke="#5656ff" transform="matrix(0 2.09846 -2.25501 0 993.671 -567.972)" ry="16.24989" rx="0.35714" id="svg_40" cy="283.97239" cx="338.96506" stroke-width="30" fill="#ff0000"/>
    </g>
    <ellipse stroke="#ffffff" transform="matrix(2.11902 0.717714 -0.771259 1.9719 -72.1351 -550.649)" ry="80.00733" rx="1" id="svg_42" cy="282.66684" cx="408.24947" stroke-width="20" fill="#ffffff"/>
    <ellipse stroke="#ffffff" transform="matrix(2.11902 -0.717714 0.771259 1.9719 -542.043 94.4967)" ry="78.66492" rx="1" id="svg_43" cy="242.39366" cx="380.47965" stroke-width="20" fill="#ffffff"/>
    <ellipse stroke="#ffffff" transform="matrix(0 2.09846 -2.25501 0 991.184 -566.09)" ry="14.65065" rx="1" id="svg_44" cy="283.86911" cx="337.96536" stroke-width="20" fill="#ffffff"/>
    <ellipse stroke="#ffffff" transform="matrix(0 2.09846 -2.25501 0 1092.66 -515.129)" ry="14.65065" rx="1" id="svg_45" cy="318.51172" cx="348.32243" stroke-width="20" fill="#ffffff"/>
    <ellipse stroke="#ffffff" transform="matrix(0 2.09846 -2.25501 0 1192.52 -462.667)" ry="14.65065" rx="1" id="svg_46" cy="353.15434" cx="357.96522" stroke-width="20" fill="#ffffff"/>
    <g stroke="null" id="svg_52">
     <ellipse stroke="#5656ff" transform="matrix(2.11902 -0.717714 0.771259 1.9719 -542.416 94.8222)" fill="#ff0000" stroke-width="30" cx="380.8364" cy="242.94044" id="svg_47" rx="0.52632" ry="79.73684"/>
     <ellipse stroke="#5656ff" transform="matrix(2.11902 0.717714 -0.771259 1.9719 -72.0386 -550.667)" fill="#ff0000" stroke-width="30" cx="408.29547" cy="282.78338" id="svg_48" rx="0.52632" ry="79.73684"/>
     <ellipse stroke="#5656ff" transform="matrix(0 2.09846 -2.25501 0 1197.42 -468.295)" ry="16.24989" rx="0.35714" id="svg_49" cy="352.90048" cx="360.39348" stroke-width="30" fill="#ff0000"/>
     <ellipse stroke="#5656ff" transform="matrix(0 2.09846 -2.25501 0 1098.37 -518.507)" ry="16.24989" rx="0.35714" id="svg_50" cy="318.97214" cx="350.39355" stroke-width="30" fill="#ff0000"/>
     <ellipse stroke="#5656ff" transform="matrix(0 2.09846 -2.25501 0 993.671 -567.972)" ry="16.24989" rx="0.35714" id="svg_51" cy="283.97239" cx="338.96506" stroke-width="30" fill="#ff0000"/>
    </g>
    <ellipse stroke="#ffffff" transform="matrix(2.11902 0.717714 -0.771259 1.9719 -72.1351 -550.649)" ry="80.00733" rx="1" id="svg_53" cy="282.66684" cx="408.24947" stroke-width="20" fill="#ffffff"/>
    <ellipse stroke="#ffffff" transform="matrix(2.11902 -0.717714 0.771259 1.9719 -542.043 94.4967)" ry="78.66492" rx="1" id="svg_54" cy="242.39366" cx="380.47965" stroke-width="20" fill="#ffffff"/>
    <ellipse stroke="#ffffff" transform="matrix(0 2.09846 -2.25501 0 991.184 -566.09)" ry="14.65065" rx="1" id="svg_55" cy="283.86911" cx="337.96536" stroke-width="20" fill="#ffffff"/>
    <ellipse stroke="#ffffff" transform="matrix(0 2.09846 -2.25501 0 1092.66 -515.129)" ry="14.65065" rx="1" id="svg_56" cy="318.51172" cx="348.32243" stroke-width="20" fill="#ffffff"/>
    <ellipse stroke="#ffffff" transform="matrix(0 2.09846 -2.25501 0 1192.52 -462.667)" ry="14.65065" rx="1" id="svg_57" cy="353.15434" cx="357.96522" stroke-width="20" fill="#ffffff"/>
   </g>
  </g>
 </g>

</svg>